<?xml version="1.0" encoding="UTF-8"?>
<!DOCTYPE svg PUBLIC "-//W3C//DTD SVG 1.1//EN" "http://www.w3.org/Graphics/SVG/1.1/DTD/svg11.dtd">
<!-- Creator: CorelDRAW X8 -->
<svg xmlns="http://www.w3.org/2000/svg" xml:space="preserve" width="6in" height="3.6in" version="1.1" style="shape-rendering:geometricPrecision; text-rendering:geometricPrecision; image-rendering:optimizeQuality; fill-rule:evenodd; clip-rule:evenodd"
viewBox="0 0 6000 3600"
 xmlns:xlink="http://www.w3.org/1999/xlink">
 <defs>
  <style type="text/css">
   <![CDATA[
    .fil0 {fill:#1E254F}
   ]]>
  </style>
 </defs>
 <g id="Layer_x0020_1">
  <metadata id="CorelCorpID_0Corel-Layer"/>
  <path class="fil0" d="M1757 636l0 339c0,126 144,186 222,84 86,-114 -72,-488 123,-700 38,-41 147,-107 222,-107l1985 0c143,0 320,155 320,366l0 2341c0,55 -12,101 -26,139 -44,120 -180,227 -294,227l-1985 0c-31,0 -99,-21 -122,-33 -28,-15 -75,-48 -95,-69 -201,-215 -46,-574 -121,-694 -76,-121 -229,-44 -229,55 0,320 -43,595 172,808 97,97 233,180 423,180l1930 0c235,0 429,-140 524,-326 29,-56 61,-142 61,-223l0 -2469c0,-271 -268,-549 -585,-549l-1930 0c-187,0 -334,89 -428,185 -114,116 -167,273 -167,446z"/>
  <path class="fil0" d="M3480 1807c0,-95 -16,-93 -89,-167 -40,-40 -74,-74 -114,-114l-627 -626c-136,-110 -284,63 -169,178 79,80 560,550 588,592l-2113 0c-69,0 -192,-16 -192,128 0,40 29,75 54,92 49,35 367,18 440,18 604,0 1207,0 1811,0 -26,38 -506,512 -579,583 -36,36 -61,71 -44,131 15,55 59,91 111,91 70,0 107,-48 144,-85l686 -686c33,-33 93,-77 93,-135z"/>
 </g>
</svg>
